<?xml version="1.0" encoding="utf-8"?>
<!-- Generator: Adobe Illustrator 22.1.0, SVG Export Plug-In . SVG Version: 6.00 Build 0)  -->
<svg version="1.1" xmlns="http://www.w3.org/2000/svg" xmlns:xlink="http://www.w3.org/1999/xlink" x="0px" y="0px"
	 viewBox="0 0 694 491.5" style="enable-background:new 0 0 694 491.5;" xml:space="preserve">
<style type="text/css">
	.st0{fill:#6300FF;}
	.st1{fill:none;}
</style>
<g id="Calque_2">
	<rect class="st0" width="694" height="491.5"/>
</g>
<g id="Calque_1">
	<g id="Layer_x0020_1">
		<path d="M601.2,92.5h-70.4h0v336.3c0,31.5,35.1,55.8,62.1,28.8c7.4-7.4,12-17.6,12-28.8V96.2C605,94.2,603.3,92.5,601.2,92.5
			L601.2,92.5z"/>
		<path class="st1" d="M564.1,462.1L564.1,462.1c-9.1,0-17.4-3.8-23.5-9.8c-6-6-9.8-14.4-9.8-23.5V100h66.6v328.8
			c0,9.2-3.7,17.5-9.8,23.5S573.3,462.1,564.1,462.1L564.1,462.1L564.1,462.1L564.1,462.1L564.1,462.1 M564.1,462.1L564.1,462.1
			L564.1,462.1L564.1,462.1L564.1,462.1L564.1,462.1L564.1,462.1L564.1,462.1L564.1,462.1L564.1,462.1L564.1,462.1L564.1,462.1
			L564.1,462.1L564.1,462.1L564.1,462.1L564.1,462.1 M564.1,462.1L564.1,462.1 M564.1,469.5l-0.4,0l-0.1,0l-0.1,0
			c-0.1,0-0.3,0-0.4,0l0,0l-0.2,0l-0.3,0l-0.1,0l-0.4,0l-0.1,0l-0.5,0l0,0l-0.1,0l-0.4,0l-0.1,0l-0.3,0l-0.2,0l-0.4,0l0,0
			c-0.2,0-0.3,0-0.5,0c0.2,0,0.3,0,0.5,0 M558.4,469.1c-0.3,0-0.6-0.1-0.9-0.1l0,0l-0.4-0.1l-0.1,0l-0.5-0.1h0l-0.5-0.1l-0.1,0
			l-0.4-0.1l-0.1,0l-0.4-0.1l-0.1,0l0,0c-0.3-0.1-0.6-0.1-0.9-0.2l-0.1,0l-0.4-0.1l-0.1,0l-0.4-0.1l0,0l-0.4-0.1l-0.1,0l-0.3-0.1
			l-0.2-0.1 M545.6,465c-0.3-0.1-0.5-0.3-0.8-0.4l-0.1-0.1l-0.3-0.2l-0.1-0.1l-0.4-0.2l0,0l-0.3-0.2l0,0l-0.2-0.1l-0.2-0.1l-0.1-0.1
			l-0.3-0.2l0,0l-0.4-0.2l0,0l-0.1,0l-0.3-0.2l-0.1-0.1l-0.3-0.2l-0.1-0.1l-0.3-0.2l0,0l0,0l-0.3-0.2l-0.1-0.1l-0.1-0.1l-0.3-0.2
			l-0.1,0l0,0l0,0l-0.3-0.3l0,0l-0.3-0.3l-0.1,0l0,0l0,0l-0.2-0.2l-0.1-0.1l0,0l-0.1-0.1l-0.3-0.2l-0.1,0l0,0l-0.3-0.3l0,0l-0.3-0.3
			l0,0l0,0l-0.2-0.2l-0.1-0.1l0,0l0,0l-0.3-0.3l0,0l0,0l-0.2-0.2l-0.1-0.1l0,0l-0.1-0.1l-0.2-0.2l0,0l0,0l-0.3-0.3l0,0l0,0l0,0
			l-0.3-0.3l0,0l0,0l-0.3-0.3c-7.4-7.4-12-17.6-12-28.8v-319V96.2c0-2.1,1.7-3.7,3.7-3.7h3.7h70.4c2.1,0,3.7,1.7,3.7,3.7v332.5
			c0,11.2-4.6,21.4-12,28.8c-7.4,7.4-17.6,12-28.8,12h0h0h0h0l0,0h0h0h0h0h0h0h0h0h0h0h0h0 M545.6,465L545.6,465l0.4,0.2l0.2,0.1
			l0.2,0.1l0.2,0.1l0,0l0.3,0.2l0,0l0,0l0.4,0.2l0.1,0l0.3,0.2l0.1,0l0.4,0.2l0,0l0.4,0.2l0.1,0l0.3,0.1l0.1,0l0.4,0.2l0,0l0.4,0.2
			l0.1,0l0.1,0l0.4,0.1l0.1,0l0.4,0.1l0,0l0.4,0.1l0,0 M558.4,469.1l0.2,0l0.3,0l0.1,0l0.4,0l0.1,0"/>
		<path d="M474.3,404.6c2.1,0,3.7,1.7,3.7,3.7s-1.7,3.7-3.7,3.7H163.7c-2.1,0-3.7-1.7-3.7-3.7s1.7-3.7,3.7-3.7H474.3z M474.3,345.8
			c2.1,0,3.7,1.7,3.7,3.7s-1.7,3.7-3.7,3.7H163.7c-2.1,0-3.7-1.7-3.7-3.7s1.7-3.7,3.7-3.7H474.3z M523.4,428.7v-319V96.2V27H118.9
			v401.1c0,9.3,3.8,17.8,10,24c6.2,6.2,14.6,10,24,10h387.8c-1.9-1.3-3.7-2.9-5.3-4.5C528,450.2,523.4,440,523.4,428.7L523.4,428.7z
			 M355.6,170.4h111.8c2.1,0,3.7,1.7,3.7,3.7v111.8c0,2.1-1.7,3.7-3.7,3.7H355.6c-2.1,0-3.7-1.7-3.7-3.7V174.1
			C351.8,172,353.5,170.4,355.6,170.4L355.6,170.4z M303.9,276.5c0,2.1-1.7,3.7-3.7,3.7H170.7c-2.1,0-3.7-1.7-3.7-3.7
			c0-2.1,1.7-3.7,3.7-3.7h129.5C302.3,272.8,303.9,274.5,303.9,276.5z M303.9,231.8c0,2.1-1.7,3.7-3.7,3.7H170.7
			c-2.1,0-3.7-1.7-3.7-3.7c0-2.1,1.7-3.7,3.7-3.7h129.5C302.3,228.1,303.9,229.8,303.9,231.8z M432.5,115.5
			c-0.7,2.1-1.8,3.9-3.2,5.6c-1.4,1.6-2.9,3-4.8,4.2c-1.8,1.2-3.8,2.1-6,2.7c-2.1,0.6-4.4,1-6.7,1v-4.6c1.3-0.4,2.4-0.9,3.5-1.4
			c1.1-0.6,1.9-1.3,2.6-2.2c0.7-0.9,1-2.1,1.1-3.5c0-1.2-0.3-2.3-0.9-3.2c-0.6-0.9-1.4-1.7-2.4-2.3c-1-0.7-2-1.2-3.1-1.7
			c-1.1-0.5-2.1-0.9-3.1-1.3c-2-0.8-3.9-1.7-5.8-2.6c-1.9-0.9-3.6-1.9-5.2-3c-1.6-1.1-3-2.4-4.2-3.8c-1.2-1.4-2.2-3.1-2.8-5
			c-0.7-1.9-1-4.1-1-6.5c0-3,0.5-5.7,1.5-8.1c1-2.4,2.4-4.4,4.2-6.1c1.8-1.7,3.9-3,6.4-3.9c2.4-0.9,5.1-1.5,8-1.6v4.6
			c-1,0.3-1.9,0.8-2.8,1.4c-0.8,0.6-1.5,1.3-2,2.2c-0.5,0.9-0.8,1.8-0.8,2.9c0,1,0.1,1.8,0.5,2.6c0.3,0.8,0.9,1.6,1.8,2.4
			c0.8,0.7,2,1.5,3.5,2.3c1.5,0.8,3.4,1.6,5.7,2.5c3.5,1.3,6.3,2.8,8.5,4.4c2.2,1.6,3.9,3.2,5.2,4.9c1.2,1.7,2.1,3.5,2.6,5.3
			c0.5,1.8,0.7,3.6,0.7,5.4C433.6,111.2,433.3,113.4,432.5,115.5L432.5,115.5z M303.9,187.1c0,2.1-1.7,3.7-3.7,3.7H170.7
			c-2.1,0-3.7-1.7-3.7-3.7c0-2.1,1.7-3.7,3.7-3.7h129.5C302.3,183.4,303.9,185,303.9,187.1z M378.6,81.7l-5,19.9l-0.2-0.1l-2.2-8.5
			l3-12.2c0.1-0.5,0.2-1.1,0.4-1.6c0.1-0.5,0.2-1.1,0.2-1.6c0-0.8-0.2-1.5-0.5-1.9c-0.3-0.5-0.7-0.9-1.2-1.2c-0.5-0.3-1-0.6-1.5-0.9
			c-0.5-0.3-0.9-0.6-1.2-0.9c-0.3-0.4-0.5-0.8-0.5-1.4c0-0.6,0.2-1,0.5-1.3c0.3-0.3,0.7-0.5,1.2-0.6c0.5-0.1,0.9-0.2,1.4-0.1H383
			c0.5,0,1,0,1.5,0.1c0.5,0.1,0.9,0.3,1.2,0.6c0.3,0.3,0.5,0.8,0.5,1.5c0,0.6-0.2,1-0.4,1.2c-0.3,0.3-0.7,0.5-1.2,0.7
			c-1.3,0.6-2.3,1.3-3.1,2.1c-0.8,0.8-1.3,1.7-1.8,2.8C379.3,79.3,378.9,80.4,378.6,81.7L378.6,81.7z M361.5,69.2l10.3,39.2
			l-4.9,19.5h-9.3l-10.2-37.8l5.3-20.9L361.5,69.2L361.5,69.2z M340.8,78.3l7.8,28.8l-5.2,20.8h-9.3l-14-51.1
			c-0.1-0.5-0.2-0.9-0.4-1.2c-0.1-0.3-0.3-0.6-0.5-0.8c-0.2-0.2-0.6-0.4-1-0.6c-0.4-0.2-0.7-0.4-1-0.5c-0.3-0.2-0.5-0.4-0.7-0.7
			c-0.1-0.3-0.2-0.7-0.2-1.1c0-0.6,0.2-1.1,0.5-1.5c0.3-0.4,0.8-0.6,1.3-0.8c0.5-0.2,1.1-0.2,1.6-0.3c0.6,0,1.1-0.1,1.5,0h18.2
			c0.4,0,0.9,0,1.4,0c0.5,0,1,0.1,1.5,0.2c0.5,0.1,0.8,0.3,1.1,0.7c0.3,0.3,0.4,0.8,0.5,1.4c0,0.7-0.2,1.1-0.5,1.5
			c-0.4,0.3-0.8,0.6-1.2,0.9c-0.5,0.2-0.9,0.5-1.2,0.9c-0.3,0.4-0.5,0.9-0.5,1.6c0,0.3,0,0.7,0.1,1
			C340.6,77.6,340.7,77.9,340.8,78.3L340.8,78.3z M303.6,106.3c0,0.2,0,0.4,0,0.8c0,0.4,0,0.8-0.1,1.2c-0.1,0.4-0.3,0.7-0.6,1
			c-0.3,0.3-0.7,0.4-1.3,0.5c-0.5,0-1-0.1-1.3-0.4c-0.3-0.2-0.6-0.5-0.8-0.9c-0.2-0.4-0.3-0.8-0.5-1.3c-0.2-1-0.6-2-1-2.9
			c-0.4-0.9-1-1.8-1.8-2.5c-0.7-0.7-1.6-1.2-2.7-1.5v-4.9c1.1-0.3,2-0.8,2.7-1.5c0.7-0.7,1.3-1.5,1.8-2.5c0.4-0.9,0.8-1.9,1-2.9
			c0.1-0.5,0.3-0.9,0.5-1.3c0.2-0.4,0.4-0.7,0.8-0.9c0.3-0.2,0.8-0.4,1.3-0.4c0.6,0,1,0.2,1.3,0.4c0.3,0.3,0.5,0.6,0.6,1
			c0.1,0.4,0.1,0.8,0.1,1.2c0,0.4,0,0.6,0,0.8C303.6,89.4,303.6,106.3,303.6,106.3z M290,69.2v58.7h-20.7c-0.1,0-0.3,0-0.6-0.1
			c-0.3,0-0.6-0.1-1-0.3c-0.4-0.2-0.7-0.4-0.9-0.7c-0.3-0.3-0.4-0.8-0.4-1.3c0-0.5,0.2-1,0.5-1.3c0.3-0.4,0.7-0.6,1.2-0.8
			c0.9-0.3,1.5-0.5,1.9-0.8c0.4-0.3,0.6-0.7,0.7-1.2c0.1-0.5,0.1-1.2,0.1-2.2V78c0-1,0-1.7-0.1-2.2c-0.1-0.5-0.3-0.9-0.7-1.2
			c-0.4-0.3-1-0.6-1.9-0.8c-0.5-0.2-0.9-0.4-1.2-0.8c-0.3-0.4-0.5-0.8-0.5-1.3c0-0.6,0.1-1,0.4-1.3c0.3-0.3,0.6-0.6,0.9-0.7
			c0.4-0.2,0.7-0.3,1-0.3c0.3-0.1,0.5-0.1,0.6-0.1L290,69.2L290,69.2z M254.3,108.9v19h-11.7l-28.7-49.5c-0.4-0.7-0.8-1.4-1.1-1.9
			c-0.3-0.5-0.7-1-1.2-1.4c-0.5-0.4-1.1-0.7-2-1c-0.4-0.1-0.9-0.3-1.2-0.5c-0.4-0.2-0.6-0.4-0.8-0.7c-0.2-0.3-0.3-0.7-0.3-1.3
			c0-0.8,0.2-1.3,0.7-1.7c0.4-0.3,1-0.5,1.6-0.6c0.6-0.1,1.2-0.1,1.8-0.1h20.2L254.3,108.9L254.3,108.9z M218,115.5
			c0.2,1.6,0.5,2.9,0.9,3.9c0.4,1,0.8,1.8,1.3,2.3c0.5,0.5,0.9,1,1.4,1.2c0.5,0.3,0.9,0.5,1.3,0.7c0.4,0.2,0.7,0.4,1,0.7
			c0.2,0.3,0.4,0.7,0.4,1.2c0,0.6-0.2,1.1-0.5,1.4c-0.3,0.3-0.7,0.5-1.2,0.7c-0.5,0.1-0.9,0.2-1.4,0.2c-0.4,0-0.8,0-1,0h-8.9
			c-0.2,0-0.6,0-1,0c-0.4,0-0.9-0.1-1.4-0.2c-0.5-0.1-0.9-0.4-1.2-0.7c-0.3-0.3-0.5-0.8-0.5-1.4c0-0.5,0.1-1,0.4-1.2
			c0.2-0.3,0.6-0.5,1-0.7c0.4-0.2,0.9-0.4,1.3-0.7c0.5-0.3,1-0.7,1.4-1.2c0.5-0.5,0.9-1.3,1.3-2.3c0.4-1,0.7-2.3,0.9-3.9V83.9h0.2
			l4.4,7.8C218,91.8,218,115.5,218,115.5z M431.5,71.5V85c0,0.6,0,1.2-0.2,1.8c-0.1,0.6-0.4,1-0.7,1.4c-0.4,0.4-0.9,0.6-1.7,0.6
			c-0.6,0-1.1-0.2-1.5-0.4c-0.4-0.3-0.7-0.7-0.9-1.1c-0.2-0.5-0.3-1-0.4-1.5c-0.2-1.5-0.7-2.9-1.4-4.3c-0.7-1.4-1.5-2.7-2.6-3.9
			c-1.1-1.2-2.2-2.2-3.6-3.1c-1.3-0.9-2.8-1.5-4.3-1.8V68c1.3,0,2.5,0.2,3.7,0.5c1.2,0.3,2.3,0.7,3.4,1c1,0.4,1.9,0.7,2.6,1
			c0.7,0.3,1.2,0.5,1.4,0.5c0.5,0,0.9-0.2,1.2-0.4c0.3-0.3,0.5-0.6,0.8-1c0.2-0.4,0.5-0.7,0.8-1c0.3-0.3,0.7-0.4,1.2-0.4
			c0.6,0,1.1,0.2,1.4,0.4c0.3,0.3,0.5,0.6,0.7,1c0.1,0.4,0.2,0.7,0.2,1.1C431.5,71.1,431.6,71.4,431.5,71.5L431.5,71.5z M311,69.2
			v15.9c0,0.1,0,0.4-0.1,0.7c-0.1,0.3-0.3,0.6-0.7,0.8c-0.3,0.2-0.9,0.4-1.7,0.4c-0.6,0-1.1-0.2-1.4-0.5c-0.3-0.4-0.5-0.8-0.7-1.4
			c-1-3.2-2.6-5.7-4.6-7.6c-2.1-1.9-4.9-3.1-8.3-3.7v-4.6L311,69.2L311,69.2z M256,76.1c-0.5,0.7-0.9,1.6-1.2,2.7
			c-0.3,1.2-0.5,2.7-0.5,4.5v19.1h-0.2l-4.4-7.9V83.4c0-1.9-0.2-3.4-0.5-4.5c-0.3-1.2-0.7-2.1-1.2-2.7c-0.5-0.7-1-1.2-1.6-1.5
			c-0.5-0.4-1.1-0.7-1.5-0.9c-0.5-0.2-0.9-0.5-1.2-0.8c-0.3-0.3-0.5-0.8-0.5-1.3c0-0.5,0.2-1,0.4-1.3c0.3-0.3,0.6-0.5,1-0.7
			c0.4-0.2,0.8-0.2,1.1-0.3c0.4,0,0.6-0.1,0.9-0.1h10.7c0.2,0,0.5,0,0.9,0.1c0.4,0.1,0.7,0.1,1.1,0.3c0.4,0.2,0.7,0.4,1,0.7
			c0.3,0.3,0.4,0.7,0.4,1.3c0,0.6-0.2,1-0.5,1.3c-0.3,0.3-0.7,0.6-1.2,0.8c-0.5,0.2-1,0.5-1.5,0.9C257,75,256.4,75.5,256,76.1
			L256,76.1z M394.5,106.8c0.4,0.2,0.7,0.5,1,0.9c0.3,0.4,0.4,0.8,0.5,1.3c0.3,1.6,0.8,3.2,1.4,4.9c0.7,1.6,1.5,3.2,2.6,4.7
			c1,1.5,2.3,2.7,3.7,3.8c1.4,1,3,1.8,4.7,2.1v4.6c-1.7-0.1-3.1-0.2-4.2-0.5c-1.1-0.3-2.1-0.6-2.9-1c-0.8-0.4-1.5-0.7-2.1-1
			c-0.6-0.3-1.3-0.4-2-0.4c-0.6,0-1.1,0.1-1.4,0.4c-0.4,0.2-0.7,0.5-0.9,0.9c-0.2,0.3-0.5,0.6-0.8,0.9c-0.3,0.3-0.7,0.4-1.1,0.4
			c-0.6,0-1.1-0.2-1.4-0.5c-0.3-0.3-0.6-0.6-0.7-1c-0.1-0.4-0.2-0.8-0.3-1.1s0-0.6,0-0.7v-15.1c0-0.6,0-1.1,0.2-1.7
			c0.1-0.6,0.4-1.1,0.7-1.5c0.4-0.4,0.9-0.6,1.6-0.6C393.6,106.5,394.1,106.6,394.5,106.8L394.5,106.8z M311.6,112.2v15.7h-18v-4.6
			c2.1-0.3,4.1-0.9,5.8-1.9c1.7-1,3.3-2.3,4.5-3.9c1.3-1.6,2.3-3.5,3-5.6c0.2-0.4,0.4-0.8,0.6-1.2c0.2-0.4,0.4-0.7,0.7-0.9
			c0.3-0.2,0.7-0.4,1.1-0.4c0.6,0,1.1,0.1,1.4,0.4c0.3,0.2,0.5,0.5,0.7,0.9c0.1,0.3,0.2,0.6,0.2,0.9
			C311.6,111.9,311.6,112.1,311.6,112.2L311.6,112.2z"/>
	</g>
	<rect x="99" class="st1" width="491.5" height="491.5"/>
</g>
</svg>
